<svg width="13" height="11" viewBox="0 0 13 11" xmlns="http://www.w3.org/2000/svg" fill="currentColor">
    <path d="M1.91667 10.9551C1.59583 10.9551 1.32118 10.8479 1.09271 10.6337C0.864236 10.4194 0.75 10.1618 0.75 9.86094V2.20196C0.75 1.90107 0.864236 1.64349 1.09271 1.42922C1.32118 1.21495 1.59583 1.10782 1.91667 1.10782H7.12292L5.95625 2.20196H1.91667V9.86094H10.0833V6.0588L11.25 4.96466V9.86094C11.25 10.1618 11.1358 10.4194 10.9073 10.6337C10.6788 10.8479 10.4042 10.9551 10.0833 10.9551H1.91667ZM4.25 7.67266V5.34761L9.60208 0.328242C9.71875 0.218828 9.85 0.136768 9.99583 0.0820606C10.1417 0.0273535 10.2875 0 10.4333 0C10.5889 0 10.7372 0.0273535 10.8781 0.0820606C11.0191 0.136768 11.1479 0.218828 11.2646 0.328242L12.0813 1.10782C12.1882 1.21723 12.2708 1.33804 12.3292 1.47025C12.3875 1.60246 12.4167 1.73695 12.4167 1.87372C12.4167 2.01048 12.3899 2.14497 12.3365 2.27718C12.283 2.40939 12.1979 2.5302 12.0813 2.63961L6.72917 7.67266H4.25ZM5.41667 6.57852H6.23333L9.61667 3.40551L9.20833 3.02256L8.78542 2.63961L5.41667 5.79895V6.57852Z" />
</svg>
