<svg width="58.52591mm" height="58.286041mm" viewBox="0 0 58.52591 58.286041" version="1.1" fill="currentColor" xmlns="http://www.w3.org/2000/svg">
  <defs>
    <clipPath id="clip1">
      <path d="M 54,12.761719 H 76 V 34 H 54 Z m 0,0" />
    </clipPath>
    <clipPath id="clip2">
      <path d="M 71,73 H 93 V 94.441406 H 71 Z m 0,0" />
    </clipPath>
    <clipPath id="clip3">
      <path d="M 32.160156,35 H 54 V 57 H 32.160156 Z m 0,0" />
    </clipPath>
    <mask id="arrow-cutout">
      <rect x="10" y="110" width="70" height="80" fill="white"/>
      <path fill="black" stroke="black" stroke-width="0.8" stroke-linejoin="round" stroke-linecap="round" d="m 40.481474,142.70405 c 0.730335,1.32964 1.87601,0.10033 1.87601,0.10033 l -1.485754,4.06981 -3.336677,-2.75966 c 0,0 1.608406,0.47945 1.569382,-1.03697 -0.04181,-1.51641 -1.970785,-8.63018 -2.701119,-9.95706 -0.730333,-1.32964 -1.876009,-0.10316 -1.876009,-0.10316 l 1.485753,-4.06701 3.336677,2.75687 c 0,0 -1.608406,-0.47666 -1.566592,1.03975 0.03902,1.51364 1.967998,8.62741 2.698329,9.95708" />
      <path fill="black" stroke="black" stroke-width="0.8" stroke-linejoin="round" stroke-linecap="round" d="m 46.577808,165.27748 c 0.730337,1.32964 1.876007,0.10316 1.876007,0.10316 l -1.48575,4.06979 -3.336678,-2.75966 c 0,0 1.608406,0.47667 1.56938,-1.03974 -0.04181,-1.51364 -1.970786,-8.62741 -2.701119,-9.95708 -0.727546,-1.32685 -1.87601,-0.10033 -1.87601,-0.10033 l 1.485756,-4.06699 3.336675,2.75687 c 0,0 -1.608406,-0.47947 -1.56938,1.03696 0.04181,1.51641 1.970785,8.63018 2.701119,9.95706" />
      <path fill="black" stroke="black" stroke-width="0.8" stroke-linejoin="round" stroke-linecap="round" d="m 46.608472,145.07624 c -0.786085,1.29618 0.850193,1.67807 0.850193,1.67807 l -4.264921,0.74428 0.719184,-4.27049 c 0,0 0.390254,1.6335 1.683669,0.84182 1.290628,-0.79444 6.481008,-6.02106 7.264308,-7.32004 0.78608,-1.29621 -0.8502,-1.6781 -0.8502,-1.6781 l 4.26493,-0.74428 -0.71919,4.27049 c 0,0 -0.39025,-1.63349 -1.68088,-0.83902 -1.29341,0.79165 -6.4838,6.02106 -7.267093,7.31727" />
      <path fill="black" stroke="black" stroke-width="0.8" stroke-linejoin="round" stroke-linecap="round" d="m 30.123007,161.6481 c -0.786085,1.29621 0.847408,1.6781 0.847408,1.6781 l -4.262136,0.74707 0.719184,-4.2733 c 0,0 0.390254,1.63349 1.680882,0.84184 1.290628,-0.79445 6.48101,-6.02107 7.267095,-7.32007 0.786084,-1.2962 -0.850196,-1.6753 -0.850196,-1.6753 l 4.262136,-0.74705 -0.719184,4.27049 c 0,0 -0.387466,-1.63349 -1.680882,-0.84184 -1.290626,0.79446 -6.481012,6.02385 -7.264307,7.32006" />
      <path fill="black" stroke="black" stroke-width="0.8" stroke-linejoin="round" stroke-linecap="round" d="m 47.617555,151.57117 c -1.516416,-0.0307 -1.02581,1.57497 -1.02581,1.57497 l -2.779169,-3.31996 4.055859,-1.51083 c 0,0 -1.218152,1.15402 0.11429,1.87601 1.33244,0.72197 8.4518,2.60633 9.96543,2.63979 1.51642,0.0307 1.0286,-1.57775 1.0286,-1.57775 l 2.77638,3.32274 -4.05586,1.51085 c 0,0 1.21815,-1.15405 -0.11429,-1.87601 -1.33244,-0.72199 -8.4518,-2.60635 -9.96543,-2.63981" />
      <path fill="black" stroke="black" stroke-width="0.8" stroke-linejoin="round" stroke-linecap="round" d="m 25.03576,145.56963 c -1.516418,-0.0334 -1.028599,1.57495 -1.028599,1.57495 l -2.77917,-3.32274 4.055858,-1.51085 c 0,0 -1.21815,1.15405 0.11429,1.87601 1.335227,0.72197 8.451798,2.60913 9.968214,2.63979 1.51363,0.0334 1.025811,-1.57495 1.025811,-1.57495 l 2.776384,3.32273 -4.05586,1.51085 c 0,0 1.22094,-1.15404 -0.111498,-1.8788 -1.332442,-0.71917 -8.451798,-2.60633 -9.965428,-2.63699" />
    </mask>
  </defs>
  <g transform="translate(-11.970621,-119.59261)">
    <g mask="url(#arrow-cutout)">
      <path d="m 61.396335,149.27146 c 0,11.04421 -8.9452,20.00055 -19.983825,20.00055 -11.035839,0 -19.983816,-8.95634 -19.983816,-20.00055 0,-11.04698 8.947977,-20.00054 19.983816,-20.00054 11.038625,0 19.983825,8.95356 19.983825,20.00054" />
      <path d="m 64.409645,132.37902 c 0.14496,4.13949 -3.09137,7.61274 -7.22807,7.7577 -4.13669,0.14503 -7.60717,-3.09416 -7.75212,-7.23365 -0.14217,-4.13947 3.09416,-7.61275 7.22807,-7.7577 4.1367,-0.14504 7.60718,3.09415 7.75212,7.23365" />
      <path d="m 33.038765,164.56666 c 0.144956,4.13949 -3.091374,7.61274 -7.22807,7.7577 -4.136699,0.14503 -7.607177,-3.09416 -7.752129,-7.23365 -0.144956,-4.13949 3.091375,-7.61275 7.228071,-7.7577 4.136698,-0.14504 7.607177,3.09415 7.752128,7.23365" />
      <g transform="matrix(0.7136082,0,0,0.7136082,-10.979154,110.48574)">
        <path d="m 69.574219,13.992188 c 5.121093,2.726562 7.066406,9.089843 4.339843,14.214843 -2.722656,5.125 -9.078124,7.070313 -14.199218,4.34375 -5.121094,-2.722656 -7.066406,-9.085937 -4.34375,-14.210937 2.722656,-5.125 9.082031,-7.074219 14.203125,-4.347656" />
      </g>
      <g transform="matrix(0.7136082,0,0,0.7136082,-10.979154,110.48574)">
        <path d="m 86.625,74.648438 c 5.121094,2.722656 7.0625,9.085937 4.339844,14.214843 -2.722656,5.121094 -9.078125,7.070313 -14.199219,4.34375 -5.121094,-2.722656 -7.066406,-9.089843 -4.34375,-14.214843 2.722656,-5.125 9.082031,-7.070313 14.203125,-4.34375" />
      </g>
      <g transform="matrix(0.7136082,0,0,0.7136082,-10.979154,110.48574)">
        <path d="m 37.097656,36.910156 c 4.917969,-3.074218 11.398438,-1.578125 14.472656,3.34375 3.074219,4.925782 1.578126,11.40625 -3.34375,14.484375 -4.917968,3.074219 -11.394531,1.578125 -14.46875,-3.34375 -3.074218,-4.921875 -1.578124,-11.40625 3.339844,-14.484375" />
      </g>
      <path d="m 59.032505,147.92229 c 3.5095,-2.19377 8.13401,-1.12616 10.3278,2.38613 2.191,3.51229 1.12338,8.13959 -2.38613,10.33618 -3.5095,2.19377 -8.13123,1.12617 -10.32501,-2.38613 -2.19379,-3.51229 -1.12617,-8.13959 2.38334,-10.33618" />
    </g>
  </g>
</svg>
