<svg xmlns="http://www.w3.org/2000/svg" viewBox="0 0 500 500" version="1.1">
   <g fill="#fff">
      <path fill="#5cb300" d="M 500 249.992188 C 500 388.078125 388.078125 500 249.992188 500 C 111.921875 500 0 388.078125 0 249.992188 C 0 111.921875 111.921875 0 249.992188 0 C 388.078125 0 500 111.921875 500 249.992188 Z M 500 249.992188 "/>
      <path d="M 383.25 172.222656 C 376.507812 172.222656 368.128906 170.957031 358.613281 172.0625 C 352.855469 172.378906 347.265625 173.058594 342.035156 174.320312 L 331.757812 129.058594 C 328.1875 114.519531 313.515625 105.628906 298.972656 109.191406 C 284.429688 112.75 275.550781 127.429688 279.121094 141.972656 L 288.472656 177.757812 C 288.472656 177.757812 290.644531 186.648438 290.644531 205.441406 L 290.601562 205.472656 L 290.601562 347.414062 L 342.335938 347.414062 L 342.335938 336.5625 C 357.722656 344.957031 371.363281 348.792969 383.25 348.792969 C 420.3125 348.792969 446.542969 319.769531 446.542969 282.722656 L 446.542969 238.664062 C 446.542969 201.59375 420.3125 172.222656 383.25 172.222656 Z M 383.25 172.222656 "/>
      <path fill="#5cb300" d="M 394.4375 280.265625 C 394.4375 294.957031 386.035156 301.59375 376.949219 301.59375 C 367.507812 301.59375 349.6875 295.648438 342.335938 291.105469 L 342.335938 234.457031 C 354.570312 226.777344 367.507812 221.171875 376.949219 221.171875 C 386.742188 221.171875 394.4375 226.070312 394.4375 242.15625 Z M 394.4375 280.265625 "/>
      <path fill="#5cb300" d="M 304.742188 143.851562 C 299.1875 143.851562 294.671875 139.328125 294.671875 133.769531 C 294.671875 128.222656 299.1875 123.714844 304.742188 123.714844 C 310.3125 123.714844 314.808594 128.222656 314.808594 133.769531 C 314.808594 139.328125 310.3125 143.851562 304.742188 143.851562 Z M 304.742188 143.851562 "/>
      <path d="M 272.65625 172.429688 L 250.351562 172.429688 L 228.636719 262.949219 L 198.464844 172.429688 L 161.484375 172.429688 L 131.308594 262.949219 L 109.585938 172.429688 L 53.457031 172.429688 L 106.019531 346.949219 L 148.515625 346.949219 L 179.964844 251.265625 L 211.441406 346.949219 L 253.929688 346.949219 L 276.628906 271.558594 L 276.628906 205.472656 L 276.648438 201.9375 C 276.441406 188.5625 275.050781 181.707031 274.921875 181.09375 Z M 272.65625 172.429688 "/>
   </g>
</svg>
