<?xml version="1.0" encoding="UTF-8" standalone="no"?>
<svg
   width="145"
   zoomAndPan="magnify"
   viewBox="0 0 108.75 30.000001"
   height="40"
   preserveAspectRatio="xMidYMid meet"
   version="1.0"
   id="svg97"
   sodipodi:docname="logo.svg"
   inkscape:version="1.2.2 (b0a8486541, 2022-12-01)"
   xmlns:inkscape="http://www.inkscape.org/namespaces/inkscape"
   xmlns:sodipodi="http://sodipodi.sourceforge.net/DTD/sodipodi-0.dtd"
   xmlns="http://www.w3.org/2000/svg"
   xmlns:svg="http://www.w3.org/2000/svg">
  <sodipodi:namedview
     id="namedview99"
     pagecolor="#ffffff"
     bordercolor="#000000"
     borderopacity="0.25"
     inkscape:showpageshadow="2"
     inkscape:pageopacity="0.0"
     inkscape:pagecheckerboard="0"
     inkscape:deskcolor="#d1d1d1"
     showgrid="false"
     inkscape:zoom="11.323462"
     inkscape:cx="46.054821"
     inkscape:cy="20.488434"
     inkscape:window-width="1680"
     inkscape:window-height="1050"
     inkscape:window-x="0"
     inkscape:window-y="0"
     inkscape:window-maximized="0"
     inkscape:current-layer="svg97" />
  <defs
     id="defs77">
    <clipPath
       id="060e7f756f">
      <path
         d="M 1.632812 0 L 106.875 0 L 106.875 29.03125 L 1.632812 29.03125 Z M 1.632812 0 "
         clip-rule="nonzero"
         id="path71" />
    </clipPath>
    <clipPath
       id="ebb047ce05">
      <path
         d="M 34.726562 1.546875 L 74.011719 1.546875 L 74.011719 27.734375 L 34.726562 27.734375 Z M 34.726562 1.546875 "
         clip-rule="nonzero"
         id="path74" />
    </clipPath>
  </defs>
  <g
     clip-path="url(#ebb047ce05)"
     id="g89"
     transform="matrix(2.774127,0,0,1.1432885,-96.266951,-1.6294868)">
    <path
       fill="#29318C"
       d="M 74.007812,27.714844 H 34.726562 V 1.566406 h 39.28125 v 26.148438"
       fill-opacity="1"
       fill-rule="nonzero"
       id="path87" />
  </g>
  <path
     fill="#ffffff"
     d="m 29.205664,18.317871 v -5.201367 c 0,-1.585547 -0.792774,-2.797265 -2.765039,-2.797265 h -3.970313 c -1.985155,0 -2.77793,1.198827 -2.77793,2.797265 v 5.188478 c 0,1.604882 0.792775,2.391209 2.77793,2.391209 h 3.976758 c 1.978712,0 2.758594,-0.792772 2.758594,-2.37832 z m -4.763087,4.382813 c -4.363476,0 -7.315428,-3.183985 -7.315428,-7.180077 0,-4.002541 3.145313,-7.2058608 7.315428,-7.2058608 4.170118,0 7.347657,3.2033198 7.347657,7.1929688 0,4.008984 -2.98418,7.192969 -7.347657,7.192969"
     fill-opacity="1"
     fill-rule="nonzero"
     id="path91"
     style="stroke-width:1.65" />
  <path
     fill="#ffffff"
     d="m 40.517187,8.3147462 c -4.170117,0 -6.148828,2.4298828 -6.148828,4.3957028 v 9.58418 h 2.37832 V 11.518066 c 0,-0.799219 0.38672,-1.198827 1.192383,-1.198827 h 5.15625 c 0.786328,0 1.179492,0.393163 1.179492,1.185938 v 10.789452 h 2.384766 v -9.59707 c 0,-1.978712 -1.991601,-4.3828128 -6.142383,-4.3828128"
     fill-opacity="1"
     fill-rule="nonzero"
     id="path93"
     style="stroke-width:1.65" />
  <path
     fill="#ffffff"
     d="m 52.215429,6.7098637 h -1.972265 c -0.212695,0 -0.39961,-0.1933602 -0.39961,-0.3931653 v -1.998046 c 0,-0.1933586 0.186915,-0.4060551 0.39961,-0.4060551 h 1.972265 c 0.19336,0 0.39961,0.2126965 0.39961,0.4060551 v 1.998046 c 0,0.1998051 -0.20625,0.3931653 -0.39961,0.3931653 z m 0.393165,4.4021473 c 0,-1.591991 -0.792774,-2.4041012 -2.37832,-2.4041012 h -0.979687 c 0,0 -0.212696,0.4189465 -0.212696,0.8121102 0,0.4060537 0.199804,0.799219 0.199804,0.799219 h 0.605859 c 0.38672,0 0.38672,0.393163 0.38672,0.792772 v 11.182618 h 2.37832 V 11.112011"
     fill-opacity="1"
     fill-rule="nonzero"
     id="path95"
     style="stroke-width:1.65" />
</svg>
