<?xml version="1.0" encoding="UTF-8" standalone="no"?>
<svg
   xmlns:dc="http://purl.org/dc/elements/1.1/"
   xmlns:cc="http://creativecommons.org/ns#"
   xmlns:rdf="http://www.w3.org/1999/02/22-rdf-syntax-ns#"
   xmlns:svg="http://www.w3.org/2000/svg"
   xmlns="http://www.w3.org/2000/svg"
   xmlns:sodipodi="http://sodipodi.sourceforge.net/DTD/sodipodi-0.dtd"
   xmlns:inkscape="http://www.inkscape.org/namespaces/inkscape"
   id="svg933"
   version="1.1"
   viewBox="0 0 37.570834 9.4610434"
   height="35.758274"
   width="142"
   sodipodi:docname="logo.svg"
   inkscape:version="0.92.5 (2060ec1f9f, 2020-04-08)">
  <sodipodi:namedview
     pagecolor="#ffffff"
     bordercolor="#666666"
     borderopacity="1"
     objecttolerance="10"
     gridtolerance="10"
     guidetolerance="10"
     inkscape:pageopacity="0"
     inkscape:pageshadow="2"
     inkscape:window-width="1920"
     inkscape:window-height="1016"
     id="namedview18"
     showgrid="false"
     units="px"
     fit-margin-top="0"
     fit-margin-left="0"
     fit-margin-right="0"
     fit-margin-bottom="0"
     inkscape:zoom="1.6501266"
     inkscape:cx="70.999997"
     inkscape:cy="42.119702"
     inkscape:window-x="0"
     inkscape:window-y="27"
     inkscape:window-maximized="1"
     inkscape:current-layer="svg933" />
  <defs
     id="defs927" />
  <metadata
     id="metadata930">
    <rdf:RDF>
      <cc:Work
         rdf:about="">
        <dc:format>image/svg+xml</dc:format>
        <dc:type
           rdf:resource="http://purl.org/dc/dcmitype/StillImage" />
        <dc:title></dc:title>
      </cc:Work>
    </rdf:RDF>
  </metadata>
  <g
     transform="matrix(0.67526793,0,0,0.67526793,-26.646449,-25.83741)"
     id="layer1">
    <path
       id="path48"
       style="fill:#5cb300;fill-rule:evenodd;stroke-width:0.26458332"
       d="m 67.279855,51.827115 c 10.441702,0 15.903866,0.446141 22.313503,0.446141 4.332341,0 5.505609,-3.136398 5.505609,-7.00532 0,-3.86887 -1.173268,-7.005479 -5.505609,-7.005479 -6.409637,0 -11.871801,0.446352 -22.313503,0.446352 -10.441544,0 -15.904079,-0.446352 -22.313451,-0.446352 -4.332605,0 -5.505847,3.136609 -5.505847,7.005479 0,3.868922 1.173242,7.00532 5.505847,7.00532 6.409372,0 11.871907,-0.446141 22.313451,-0.446141 z"
       inkscape:connector-curvature="0" />
    <path
       id="path50"
       style="fill:#ffffff;fill-rule:evenodd;stroke-width:0.26458332"
       d="m 49.080702,48.172558 h -1.323367 l -0.980043,-2.979896 -0.97962,2.979896 h -1.323446 l -1.63658,-5.434938 h 1.747626 l 0.676751,2.818871 0.939589,-2.818871 h 1.151757 l 0.939245,2.818871 0.676751,-2.818871 h 1.747572 z"
       inkscape:connector-curvature="0" />
    <path
       id="path52"
       style="fill:#ffffff;fill-rule:evenodd;stroke-width:0.26458332"
       d="M 51.142361,48.172558 V 42.73762 h 1.656741 v 5.434938 z"
       inkscape:connector-curvature="0" />
    <path
       id="path54"
       style="fill:#ffffff;fill-rule:evenodd;stroke-width:0.26458332"
       d="m 58.719473,45.990751 c 0.03011,0.545571 0.383778,0.848493 1.009809,0.848493 0.21246,0 0.42455,-0.04045 0.585972,-0.100727 0.171662,-0.07099 0.272733,-0.141552 0.484823,-0.353669 l 0.990388,0.989621 c -0.394493,0.37383 -0.586396,0.515329 -0.919427,0.646589 -0.333798,0.141552 -0.717206,0.212116 -1.192503,0.212116 -1.727386,0 -2.585747,-0.919003 -2.585747,-2.777834 0,-1.707144 0.939615,-2.778363 2.444591,-2.778363 1.454574,0 2.434617,1.030817 2.434617,2.576381 v 0.737393 z m 0.807985,-1.949185 v 0 c -0.495168,0 -0.807985,0.323109 -0.807985,0.848228 h 1.615996 c -0.01035,-0.53557 -0.313214,-0.848228 -0.808011,-0.848228 z"
       inkscape:connector-curvature="0" />
    <path
       id="path56"
       style="fill:#ffffff;fill-rule:evenodd;stroke-width:0.26458332"
       d="m 76.863381,47.536553 c -0.434472,0.454342 -1.030341,0.696621 -1.747547,0.696621 -0.717232,0 -1.323445,-0.242279 -1.748022,-0.696621 -0.454713,-0.485193 -0.595498,-1.000231 -0.595498,-2.141855 0,-1.010364 0.161422,-1.5553 0.595498,-2.0202 0.424577,-0.454713 1.03079,-0.697521 1.748022,-0.697521 0.717206,0 1.323367,0.242808 1.747547,0.697521 0.444473,0.474425 0.595894,1.009836 0.595894,2.070762 0,1.091062 -0.151421,1.616763 -0.595894,2.091293 z m -1.747547,-3.364124 v 0 c -0.515011,0 -0.687493,0.30308 -0.687493,1.252961 0,1.009835 0.16256,1.313127 0.687493,1.313127 0.525278,0 0.687044,-0.303292 0.687044,-1.313127 0,-0.949881 -0.172059,-1.252961 -0.687044,-1.252961 z"
       inkscape:connector-curvature="0" />
    <path
       id="path58"
       style="fill:#ffffff;fill-rule:evenodd;stroke-width:0.26458332"
       d="m 80.753497,48.172558 v -0.444473 c -0.232701,0.222409 -0.343747,0.303689 -0.535623,0.383778 -0.18161,0.07093 -0.404018,0.111442 -0.65696,0.111442 -1.09101,0 -1.79795,-0.686752 -1.79795,-1.737333 0,-0.990388 0.70694,-1.596178 1.848697,-1.596178 h 1.101011 v -0.141526 c 0,-0.485087 -0.232384,-0.676778 -0.818357,-0.676778 -0.393673,0 -0.565335,0.07062 -0.868256,0.363617 l -1.030791,-1.030446 c 0.333428,-0.313426 0.495221,-0.424207 0.76761,-0.535437 0.31316,-0.131604 0.687017,-0.192247 1.182184,-0.192247 1.616393,0 2.424377,0.656908 2.424377,1.970035 v 3.525546 z m -0.878946,-2.181807 v 0 c -0.313637,0 -0.525701,0.171715 -0.525701,0.434552 0,0.292973 0.222356,0.453946 0.616453,0.453946 0.514985,0 0.747369,-0.221642 0.747369,-0.746946 v -0.141552 z"
       inkscape:connector-curvature="0" />
    <path
       id="path60"
       style="fill:#ffffff;fill-rule:evenodd;stroke-width:0.26458332"
       d="m 65.275742,42.676977 c -0.252571,0 -0.495168,0.05096 -0.727101,0.141923 -0.222436,0.0908 -0.323506,0.161554 -0.555863,0.363749 V 42.73762 h -1.616366 -0.404363 c 0,0 0.404363,0.323718 0.404363,1.023567 v 4.411371 h 1.65682 v -3.25284 c 0,-0.454369 0.262811,-0.747289 0.666486,-0.747289 0.404362,0 0.666829,0.29292 0.666829,0.747289 v 3.25284 h 1.657218 v -3.474799 c 0,-1.262777 -0.656961,-2.020782 -1.748023,-2.020782 z"
       inkscape:connector-curvature="0" />
    <path
       id="path62"
       style="fill:#ffffff;fill-rule:evenodd;stroke-width:0.26458332"
       d="m 57.072204,42.798262 c -0.202195,-0.08025 -0.444078,-0.121285 -0.69702,-0.121285 -0.514985,0 -0.929296,0.162296 -1.313471,0.505672 V 42.73762 h -1.615942 -0.404416 c 0,0 0.404416,0.323718 0.404416,1.023567 v 4.462066 h 1.656794 v -3.303535 c 0,-0.454369 0.262414,-0.747289 0.676725,-0.747289 0.222408,0 0.363617,0.07056 0.585972,0.282839 l 1.252433,-1.272619 C 57.375099,42.96024 57.26445,42.879172 57.072204,42.798262 Z"
       inkscape:connector-curvature="0" />
    <path
       id="path64"
       style="fill:#ffffff;fill-rule:evenodd;stroke-width:0.26458332"
       d="m 86.551735,42.798262 c -0.201851,-0.08025 -0.444077,-0.121285 -0.697019,-0.121285 -0.514985,0 -0.929322,0.162296 -1.313074,0.505672 V 42.73762 h -1.615995 -0.404416 c 0,0 0.404416,0.323718 0.404416,1.023567 v 4.411371 h 1.656397 v -3.25284 c 0,-0.454369 0.26252,-0.747289 0.676434,-0.747289 0.222409,0 0.364305,0.07056 0.586369,0.282839 l 1.252802,-1.272619 C 86.855,42.96024 86.743558,42.879172 86.551735,42.798262 Z"
       inkscape:connector-curvature="0" />
    <path
       id="path66"
       style="fill:#ffffff;fill-rule:evenodd;stroke-width:0.26458332"
       d="m 51.965956,40.739989 c 0.438309,0 0.79846,0.350547 0.79846,0.788908 0,0.448231 -0.360151,0.798857 -0.79846,0.798857 -0.438335,0 -0.788908,-0.350626 -0.788908,-0.798857 0,-0.438361 0.350573,-0.788908 0.788908,-0.788908 z"
       inkscape:connector-curvature="0" />
    <path
       id="path68"
       style="fill:#ffffff;fill-rule:evenodd;stroke-width:0.26458332"
       d="m 70.482001,42.731243 c -0.210105,0 -0.470614,-0.03964 -0.767318,-0.005 -0.179414,0.0097 -0.353113,0.03077 -0.516466,0.07019 l -0.319908,-1.40959 c -0.111125,-0.452729 -0.568114,-0.729615 -1.020895,-0.618676 -0.452729,0.110914 -0.729403,0.568034 -0.618278,1.020948 l 0.291412,1.114425 c 0,0 0.06715,0.27686 0.0672,0.861933 l -0.0016,7.94e-4 v 4.420341 h 1.611313 v -0.33737 c 0.479425,0.261037 0.904213,0.380894 1.274418,0.380894 1.154139,0 1.970882,-0.903764 1.970882,-2.057877 v -1.372076 c 0,-1.154562 -0.816743,-2.068989 -1.970882,-2.068989 z m -2.444829,-1.510982 v 0 c 0.173249,0 0.313584,0.140388 0.313584,0.313584 0,0.173038 -0.140335,0.313558 -0.313584,0.313558 -0.173143,0 -0.313558,-0.14052 -0.313558,-0.313558 0,-0.173196 0.140415,-0.313584 0.313558,-0.313584 z m 2.793286,4.875662 v 0 c 0,0.457227 -0.261435,0.664078 -0.544645,0.664078 -0.293899,0 -0.84918,-0.18505 -1.07823,-0.326655 V 44.66929 c 0.381291,-0.239236 0.784331,-0.413703 1.07823,-0.413703 0.304906,0 0.544645,0.152718 0.544645,0.653389 z"
       inkscape:connector-curvature="0" />
    <path
       id="path70"
       style="fill:#ffffff;fill-rule:evenodd;stroke-width:0.26458332"
       d="m 91.302434,40.768167 c -0.452755,-0.110939 -0.90977,0.165947 -1.020947,0.618676 l -0.319829,1.40962 c -0.16338,-0.03942 -0.337079,-0.06051 -0.516466,-0.07025 -0.296704,-0.03466 -0.557239,0.005 -0.767319,0.005 -1.154112,0 -1.970907,0.914427 -1.970907,2.068989 v 1.372073 c 0,1.154113 0.816795,2.057877 1.970907,2.057877 0.370179,0 0.794967,-0.119857 1.274392,-0.380895 v 0.337371 h 1.611313 v -4.420341 l -0.0016,-7.94e-4 c 5.3e-5,-0.585073 0.06723,-0.861933 0.06723,-0.861933 L 91.9207,41.789135 c 0.111138,-0.452914 -0.165537,-0.910034 -0.618319,-1.020948 z m -0.179758,0.452094 v 0 c 0.173144,0 0.313584,0.140388 0.313584,0.313584 0,0.173038 -0.14044,0.313558 -0.313584,0.313558 -0.173196,0 -0.313557,-0.14052 -0.313557,-0.313558 0,-0.173196 0.140361,-0.313584 0.313557,-0.313584 z m -1.170411,5.213085 v 0 c -0.229023,0.141605 -0.78433,0.326655 -1.07823,0.326655 -0.283183,0 -0.544644,-0.206851 -0.544644,-0.664078 v -1.186947 c 0,-0.500671 0.239686,-0.653389 0.544644,-0.653389 0.2939,0 0.696939,0.174467 1.07823,0.413703 z"
       inkscape:connector-curvature="0" />
  </g>
</svg>
